<svg id="Capa_1" enable-background="new 0 0 512 512" height="512" viewBox="0 0 512 512" width="512" xmlns="http://www.w3.org/2000/svg"><g><path d="m437.02 74.98c-48.353-48.351-112.64-74.98-181.02-74.98s-132.667 26.629-181.02 74.98c-48.351 48.353-74.98 112.64-74.98 181.02s26.629 132.667 74.98 181.02c48.353 48.351 112.64 74.98 181.02 74.98s132.667-26.629 181.02-74.98c48.351-48.353 74.98-112.64 74.98-181.02s-26.629-132.667-74.98-181.02zm-21.214 340.826c-42.686 42.686-99.439 66.194-159.806 66.194s-117.12-23.508-159.806-66.194-66.194-99.439-66.194-159.806 23.508-117.12 66.194-159.806 99.439-66.194 159.806-66.194 117.12 23.508 159.806 66.194 66.194 99.439 66.194 159.806-23.508 117.12-66.194 159.806z"/><path d="m175.607 156.268c12.992 0 23.562 10.57 23.562 23.562h30c0-29.534-24.028-53.562-53.562-53.562s-53.563 24.028-53.563 53.562h30c0-12.992 10.57-23.562 23.563-23.562z"/><path d="m336.393 156.268c12.993 0 23.563 10.57 23.563 23.562h30c0-29.534-24.028-53.562-53.563-53.562s-53.562 24.028-53.562 53.562h30c0-12.992 10.57-23.562 23.562-23.562z"/><path d="m100.704 274.01c0 85.631 69.666 155.296 155.296 155.296s155.296-69.665 155.296-155.296v-33.01h-310.592zm30-3.01h250.592v3.01c0 69.088-56.208 125.296-125.296 125.296s-125.296-56.208-125.296-125.296z"/></g></svg>